solid Crayola
   facet normal -1.000000e+000 0.000000e+000 0.000000e+000
      outer loop
         vertex -0.072500 0.062000 0.018000
         vertex -0.072500 0.062000 -0.018000
         vertex -0.072500 -0.062000 0.018000
      endloop
   endfacet
   facet normal -1.000000e+000 0.000000e+000 0.000000e+000
      outer loop
         vertex -0.072500 -0.062000 0.018000
         vertex -0.072500 0.062000 -0.018000
         vertex -0.072500 -0.062000 -0.018000
      endloop
   endfacet
   facet normal 4.785444e-017 0.000000e+000 1.000000e+000
      outer loop
         vertex 0.072500 0.062000 0.018000
         vertex -0.072500 0.062000 0.018000
         vertex 0.072500 -0.062000 0.018000
      endloop
   endfacet
   facet normal 4.785444e-017 0.000000e+000 1.000000e+000
      outer loop
         vertex 0.072500 -0.062000 0.018000
         vertex -0.072500 0.062000 0.018000
         vertex -0.072500 -0.062000 0.018000
      endloop
   endfacet
   facet normal 1.000000e+000 0.000000e+000 7.709882e-016
      outer loop
         vertex 0.072500 0.062000 -0.018000
         vertex 0.072500 0.062000 0.018000
         vertex 0.072500 -0.062000 -0.018000
      endloop
   endfacet
   facet normal 1.000000e+000 0.000000e+000 7.709882e-016
      outer loop
         vertex 0.072500 -0.062000 -0.018000
         vertex 0.072500 0.062000 0.018000
         vertex 0.072500 -0.062000 0.018000
      endloop
   endfacet
   facet normal 0.000000e+000 0.000000e+000 -1.000000e+000
      outer loop
         vertex -0.072500 0.062000 -0.018000
         vertex 0.072500 0.062000 -0.018000
         vertex -0.072500 -0.062000 -0.018000
      endloop
   endfacet
   facet normal 0.000000e+000 0.000000e+000 -1.000000e+000
      outer loop
         vertex -0.072500 -0.062000 -0.018000
         vertex 0.072500 0.062000 -0.018000
         vertex 0.072500 -0.062000 -0.018000
      endloop
   endfacet
   facet normal 0.000000e+000 1.000000e+000 0.000000e+000
      outer loop
         vertex 0.072500 0.062000 0.018000
         vertex 0.072500 0.062000 -0.018000
         vertex -0.072500 0.062000 0.018000
      endloop
   endfacet
   facet normal 0.000000e+000 1.000000e+000 0.000000e+000
      outer loop
         vertex -0.072500 0.062000 0.018000
         vertex 0.072500 0.062000 -0.018000
         vertex -0.072500 0.062000 -0.018000
      endloop
   endfacet
   facet normal 0.000000e+000 -1.000000e+000 0.000000e+000
      outer loop
         vertex 0.072500 -0.062000 -0.018000
         vertex 0.072500 -0.062000 0.018000
         vertex -0.072500 -0.062000 -0.018000
      endloop
   endfacet
   facet normal 0.000000e+000 -1.000000e+000 0.000000e+000
      outer loop
         vertex -0.072500 -0.062000 -0.018000
         vertex 0.072500 -0.062000 0.018000
         vertex -0.072500 -0.062000 0.018000
      endloop
   endfacet
endsolid
